<?xml version="1.0" encoding="utf-8"?>
<!-- Generator: Adobe Illustrator 16.0.0, SVG Export Plug-In . SVG Version: 6.00 Build 0)  -->
<!DOCTYPE svg PUBLIC "-//W3C//DTD SVG 1.1//EN" "http://www.w3.org/Graphics/SVG/1.1/DTD/svg11.dtd">
<svg version="1.1" id="图层_1" xmlns="http://www.w3.org/2000/svg" xmlns:xlink="http://www.w3.org/1999/xlink" x="0px" y="0px"
	 width="160px" height="50px" viewBox="0 0 160 50" enable-background="new 0 0 160 50" xml:space="preserve">
<g>
	<path fill="#FFFFFF" d="M56.049,17.671h1.982v2.677h0.066c0.308-0.529,0.694-0.986,1.157-1.371
		c0.463-0.386,0.964-0.706,1.503-0.959c0.541-0.253,1.107-0.44,1.703-0.562c0.595-0.121,1.178-0.183,1.751-0.183
		c1.167,0,2.242,0.198,3.222,0.596c0.979,0.396,1.828,0.952,2.544,1.668c0.716,0.716,1.272,1.565,1.668,2.545
		c0.397,0.98,0.595,2.056,0.595,3.223c0,1.168-0.198,2.242-0.595,3.223c-0.396,0.98-0.953,1.828-1.668,2.544
		c-0.717,0.716-1.565,1.271-2.544,1.668c-0.98,0.397-2.055,0.596-3.222,0.596c-0.573,0-1.157-0.061-1.751-0.183
		c-0.595-0.12-1.162-0.308-1.703-0.561c-0.539-0.253-1.04-0.574-1.503-0.959c-0.462-0.385-0.849-0.844-1.157-1.371h-0.066v10.212
		h-1.982V17.671z M57.833,25.305c0,0.859,0.166,1.669,0.497,2.429c0.331,0.761,0.781,1.421,1.354,1.983
		c0.573,0.562,1.245,1.008,2.016,1.338c0.772,0.33,1.609,0.496,2.512,0.496c0.925,0,1.763-0.166,2.511-0.496
		c0.75-0.33,1.389-0.776,1.917-1.338c0.529-0.562,0.931-1.223,1.206-1.983c0.276-0.76,0.415-1.569,0.415-2.429
		c0-0.86-0.139-1.669-0.415-2.43c-0.275-0.76-0.677-1.421-1.206-1.982c-0.528-0.562-1.167-1.008-1.917-1.339
		c-0.748-0.33-1.586-0.495-2.511-0.495c-0.903,0-1.74,0.165-2.512,0.495c-0.771,0.331-1.443,0.777-2.016,1.339
		s-1.023,1.223-1.354,1.982C57.998,23.636,57.833,24.444,57.833,25.305"/>
	<polygon fill="#FFFFFF" points="126.777,17.3 128.959,17.3 132.66,30.759 132.727,30.759 136.99,17.3 138.874,17.3 143.4,30.759 
		143.467,30.759 147.068,17.3 149.051,17.3 144.557,33.296 142.508,33.296 137.948,20.141 137.881,20.141 133.618,33.296 
		131.57,33.296 	"/>
	<path fill="#FFFFFF" d="M53.038,25.801H54c0.009-0.165,0.014-0.329,0.014-0.496c0-1.167-0.197-2.242-0.595-3.223
		c-0.396-0.979-0.954-1.828-1.669-2.544c-0.716-0.717-1.564-1.272-2.544-1.669c-0.98-0.397-2.054-0.596-3.221-0.596
		c-1.168,0-2.247,0.198-3.24,0.596c-0.992,0.396-1.839,0.952-2.543,1.669c-0.707,0.716-1.256,1.564-1.653,2.544
		c-0.396,0.98-0.594,2.056-0.594,3.223c0,1.168,0.198,2.242,0.594,3.223c0.397,0.98,0.947,1.828,1.653,2.544
		c0.704,0.716,1.552,1.272,2.543,1.668c0.993,0.397,2.072,0.596,3.24,0.596c1.167,0,2.241-0.198,3.221-0.596
		c0.98-0.396,1.828-0.952,2.544-1.668s1.273-1.563,1.669-2.544c0.015-0.039,0.028-0.078,0.043-0.115H51.32
		c-0.245,0.48-0.544,0.916-0.908,1.303c-0.528,0.563-1.168,1.009-1.917,1.34c-0.75,0.33-1.586,0.495-2.511,0.495
		c-0.926,0-1.764-0.165-2.513-0.495c-0.749-0.331-1.387-0.776-1.917-1.34c-0.529-0.56-0.931-1.222-1.206-1.981
		c-0.223-0.612-0.349-1.257-0.393-1.933h12.055H53.038z M40.349,22.875c0.275-0.76,0.677-1.421,1.206-1.982
		c0.529-0.562,1.167-1.008,1.917-1.339s1.586-0.496,2.513-0.496c0.924,0,1.761,0.165,2.511,0.496
		c0.749,0.331,1.389,0.776,1.917,1.339c0.528,0.562,0.931,1.223,1.206,1.982c0.133,0.369,0.233,0.749,0.302,1.141H40.047
		C40.116,23.624,40.215,23.244,40.349,22.875"/>
	<path fill="#FFFFFF" d="M34.953,25.801h0.962c0.008-0.165,0.013-0.329,0.013-0.496c0-1.167-0.197-2.242-0.594-3.223
		c-0.397-0.979-0.954-1.828-1.67-2.544c-0.716-0.717-1.564-1.272-2.544-1.669c-0.98-0.397-2.054-0.596-3.221-0.596
		c-1.168,0-2.248,0.198-3.239,0.596c-0.992,0.396-1.84,0.952-2.543,1.669c-0.707,0.716-1.257,1.564-1.653,2.544
		c-0.396,0.98-0.595,2.056-0.595,3.223c0,1.168,0.199,2.242,0.595,3.223c0.396,0.98,0.946,1.828,1.653,2.544
		c0.703,0.716,1.552,1.272,2.543,1.668c0.991,0.397,2.071,0.596,3.239,0.596c1.167,0,2.241-0.198,3.221-0.596
		c0.98-0.396,1.829-0.952,2.544-1.668s1.272-1.563,1.67-2.544c0.014-0.039,0.027-0.078,0.042-0.115h-2.143
		c-0.244,0.48-0.543,0.916-0.908,1.303c-0.527,0.563-1.167,1.009-1.917,1.34c-0.75,0.33-1.586,0.495-2.511,0.495
		c-0.926,0-1.763-0.165-2.512-0.495c-0.749-0.331-1.388-0.776-1.917-1.34c-0.529-0.56-0.931-1.222-1.207-1.981
		c-0.221-0.612-0.35-1.257-0.393-1.933h12.055H34.953z M22.264,22.875c0.276-0.76,0.678-1.421,1.207-1.982
		c0.529-0.562,1.167-1.008,1.917-1.339s1.586-0.496,2.512-0.496c0.924,0,1.761,0.165,2.511,0.496
		c0.749,0.331,1.389,0.776,1.917,1.339c0.529,0.562,0.932,1.223,1.207,1.982c0.133,0.369,0.233,0.749,0.302,1.141H21.962
		C22.031,23.624,22.13,23.244,22.264,22.875"/>
	<path fill="#FFFFFF" d="M8.837,9.526H2.181H0v2.256v19.257v2.257h2.181h6.657c4.992,0,9.039-4.048,9.039-9.04v-5.69
		C17.876,13.574,13.829,9.526,8.837,9.526 M15.696,23.742c0,4.808-3.343,7.297-7.851,7.297H2.181V11.782h5.665
		c4.508,0,7.851,2.859,7.851,7.297V23.742z"/>
	<path fill="#00AEEB" d="M117.852,21.847c-0.49,0.49-1.287,0.49-1.777,0c-0.492-0.491-0.492-1.288,0-1.779
		c0.49-0.491,1.287-0.491,1.777,0C118.343,20.559,118.343,21.355,117.852,21.847"/>
	<path fill="#00AEEB" d="M109.027,30.671c-0.492,0.492-1.287,0.492-1.778,0c-0.492-0.49-0.492-1.287,0-1.778
		c0.491-0.491,1.286-0.491,1.778,0C109.519,29.384,109.519,30.181,109.027,30.671"/>
	<path fill="#39AD36" d="M118.79,26.628c-0.694,0-1.257-0.563-1.257-1.258c0-0.695,0.562-1.259,1.257-1.259s1.259,0.563,1.259,1.259
		C120.049,26.064,119.484,26.628,118.79,26.628"/>
	<path fill="#F8DE00" d="M106.311,26.628c-0.695,0-1.257-0.563-1.257-1.258c0-0.695,0.562-1.259,1.257-1.259
		s1.257,0.563,1.257,1.259C107.567,26.064,107.006,26.628,106.311,26.628"/>
	<path fill="#39AD36" d="M113.809,19.129c0,0.695-0.564,1.259-1.258,1.259c-0.695,0-1.259-0.563-1.259-1.259
		c0-0.694,0.563-1.257,1.259-1.257C113.244,17.872,113.809,18.435,113.809,19.129"/>
	<path fill="#39AD36" d="M113.809,31.609c0,0.695-0.564,1.258-1.258,1.258c-0.695,0-1.259-0.562-1.259-1.258
		c0-0.694,0.563-1.258,1.259-1.258C113.244,30.352,113.809,30.915,113.809,31.609"/>
	<path fill="#00AEEB" d="M109.027,20.067c0.491,0.491,0.491,1.287,0,1.779c-0.492,0.49-1.287,0.49-1.778,0
		c-0.492-0.492-0.492-1.288,0-1.779C107.74,19.576,108.535,19.576,109.027,20.067"/>
	<path fill="#00AEEB" d="M117.852,28.893c0.491,0.491,0.491,1.287,0,1.778c-0.49,0.492-1.287,0.492-1.777,0
		c-0.492-0.491-0.492-1.287,0-1.778C116.564,28.401,117.361,28.401,117.852,28.893"/>
	<path fill="#F8DE00" d="M116.867,17.507c-0.194,0.458-0.723,0.671-1.182,0.477s-0.672-0.724-0.479-1.182
		c0.195-0.458,0.725-0.673,1.184-0.479C116.849,16.519,117.062,17.048,116.867,17.507"/>
	<path fill="#F8DE00" d="M109.893,33.938c-0.193,0.459-0.724,0.672-1.182,0.478c-0.459-0.195-0.673-0.724-0.478-1.182
		c0.193-0.458,0.724-0.673,1.182-0.479C109.874,32.95,110.088,33.479,109.893,33.938"/>
	<path fill="#39AD36" d="M104.687,21.052c0.459,0.195,0.673,0.725,0.478,1.183c-0.193,0.458-0.723,0.672-1.182,0.478
		c-0.458-0.194-0.673-0.725-0.478-1.183C103.699,21.071,104.229,20.857,104.687,21.052"/>
	<path fill="#00AEEB" d="M121.117,28.027c0.459,0.195,0.674,0.724,0.479,1.183c-0.194,0.458-0.723,0.671-1.181,0.478
		c-0.459-0.195-0.675-0.725-0.479-1.184S120.66,27.832,121.117,28.027"/>
	<path fill="#00AEEB" d="M103.938,27.877c0.461-0.186,0.988,0.036,1.174,0.498c0.187,0.463-0.037,0.988-0.498,1.175
		c-0.463,0.187-0.987-0.036-1.174-0.499C103.254,28.59,103.476,28.063,103.938,27.877"/>
	<path fill="#39AD36" d="M120.488,21.189c0.461-0.186,0.986,0.037,1.172,0.499c0.188,0.461-0.035,0.987-0.498,1.174
		c-0.461,0.188-0.986-0.036-1.172-0.498C119.803,21.901,120.026,21.377,120.488,21.189"/>
	<path fill="#00AEEB" d="M116.729,33.309c-0.186-0.464-0.711-0.686-1.172-0.5c-0.463,0.187-0.686,0.712-0.498,1.174
		c0.186,0.461,0.712,0.686,1.173,0.498C116.693,34.295,116.916,33.769,116.729,33.309"/>
	<path fill="#F8DE00" d="M110.043,16.756c-0.187-0.461-0.713-0.685-1.174-0.498c-0.461,0.188-0.685,0.712-0.498,1.174
		c0.186,0.462,0.713,0.686,1.174,0.499S110.229,17.219,110.043,16.756"/>
	<path fill="#00AEEB" d="M116.307,29.074c-2.816-3.072-2.816-4.337,0-7.408l-0.053-0.054c-3.073,2.818-4.338,2.817-7.41-0.003
		l-0.054,0.054c2.821,3.074,2.821,4.339,0,7.413l0.054,0.055c3.072-2.822,4.337-2.822,7.41-0.004L116.307,29.074z"/>
	<path fill="#00AEEB" d="M119.695,19.132c-0.252,0.252-0.66,0.252-0.911,0c-0.252-0.251-0.252-0.66,0-0.911
		c0.251-0.251,0.659-0.251,0.911,0C119.945,18.472,119.945,18.881,119.695,19.132"/>
	<path fill="#00AEEB" d="M106.438,32.389c-0.251,0.253-0.66,0.253-0.912,0c-0.252-0.25-0.252-0.658,0-0.91
		c0.252-0.25,0.661-0.25,0.912,0C106.688,31.73,106.688,32.139,106.438,32.389"/>
	<path fill="#00AEEB" d="M113.254,15.93c0,0.356-0.288,0.645-0.643,0.645c-0.355,0-0.645-0.288-0.645-0.645
		c0-0.355,0.289-0.644,0.645-0.644C112.966,15.286,113.254,15.574,113.254,15.93"/>
	<path fill="#00AEEB" d="M113.254,34.68c0,0.357-0.288,0.645-0.643,0.645c-0.355,0-0.645-0.287-0.645-0.645
		c0-0.354,0.289-0.643,0.645-0.643C112.966,34.037,113.254,34.325,113.254,34.68"/>
	<path fill="#00AEEB" d="M106.438,18.221c0.25,0.251,0.25,0.66,0,0.911c-0.251,0.252-0.66,0.252-0.912,0
		c-0.252-0.251-0.252-0.66,0-0.911S106.187,17.97,106.438,18.221"/>
	<path fill="#00AEEB" d="M119.695,31.479c0.25,0.252,0.25,0.66,0,0.91c-0.252,0.253-0.66,0.253-0.911,0
		c-0.252-0.25-0.252-0.658,0-0.91C119.035,31.229,119.443,31.229,119.695,31.479"/>
	<path fill="#00AEEB" d="M103.235,24.661c0.356,0,0.644,0.288,0.644,0.645c0,0.355-0.287,0.644-0.644,0.644
		c-0.355,0-0.645-0.288-0.645-0.644C102.591,24.949,102.88,24.661,103.235,24.661"/>
	<path fill="#00AEEB" d="M121.985,24.661c0.356,0,0.644,0.288,0.644,0.645c0,0.355-0.287,0.644-0.644,0.644
		s-0.645-0.288-0.645-0.644C121.341,24.949,121.629,24.661,121.985,24.661"/>
	<path fill="#FFFFFF" d="M78.373,33.318V13.995c0-1.373,1.114-2.486,2.487-2.486h11.372V9.526h-11.69c-2.402,0-4.35,1.947-4.35,4.35
		v19.442H78.373z"/>
	<rect x="76.452" y="19.852" fill="#FFFFFF" width="14.955" height="1.982"/>
	<path fill="#FFFFFF" d="M96.954,31.312c-0.343,0-0.661-0.279-0.661-0.621l0.02-21.15h-2.002v21.268
		c0,1.373,1.111,2.487,2.484,2.487h1.59v-1.983H96.954z"/>
	<g>
		<path fill="#FFFFFF" d="M156.082,9.87c0.657,0,1.301,0.169,1.926,0.507c0.629,0.337,1.118,0.82,1.468,1.45
			c0.349,0.63,0.524,1.284,0.524,1.969c0,0.676-0.172,1.326-0.516,1.95c-0.346,0.621-0.83,1.106-1.453,1.452
			c-0.621,0.346-1.271,0.517-1.949,0.517c-0.683,0-1.332-0.171-1.954-0.517c-0.621-0.346-1.106-0.831-1.454-1.452
			c-0.346-0.624-0.518-1.274-0.518-1.95c0-0.685,0.172-1.339,0.524-1.969s0.843-1.113,1.472-1.45
			C154.776,10.039,155.422,9.87,156.082,9.87 M156.082,10.519c-0.555,0-1.091,0.142-1.609,0.425
			c-0.523,0.283-0.932,0.686-1.227,1.211s-0.442,1.072-0.442,1.642c0,0.564,0.146,1.107,0.435,1.624
			c0.289,0.518,0.694,0.923,1.215,1.211c0.519,0.291,1.062,0.434,1.629,0.434c0.562,0,1.104-0.143,1.627-0.434
			c0.518-0.288,0.924-0.693,1.211-1.211c0.287-0.517,0.43-1.06,0.43-1.624c0-0.569-0.146-1.116-0.438-1.642
			c-0.292-0.525-0.701-0.928-1.226-1.211C157.164,10.66,156.629,10.519,156.082,10.519 M154.359,15.964V11.74h1.451
			c0.494,0,0.854,0.041,1.076,0.118c0.222,0.078,0.397,0.214,0.529,0.407c0.133,0.194,0.197,0.401,0.197,0.619
			c0,0.308-0.11,0.576-0.329,0.806c-0.222,0.229-0.513,0.355-0.876,0.386c0.148,0.064,0.268,0.137,0.359,0.224
			c0.168,0.167,0.375,0.446,0.621,0.838l0.516,0.826h-0.83l-0.375-0.666c-0.295-0.523-0.533-0.851-0.713-0.983
			c-0.126-0.097-0.307-0.146-0.545-0.146h-0.401v1.795H154.359z M155.04,13.587h0.827c0.395,0,0.666-0.059,0.809-0.177
			c0.145-0.119,0.217-0.275,0.217-0.468c0-0.126-0.037-0.237-0.105-0.336c-0.069-0.098-0.164-0.172-0.288-0.222
			c-0.124-0.047-0.352-0.07-0.683-0.07h-0.776V13.587z"/>
	</g>
</g>
</svg>
